<svg xmlns="http://www.w3.org/2000/svg" viewBox="0 0 32 32"><path fill="#55AAFF" d="M.06 29.75C.06 20.64.06 11.54.08 2.43C.12 2.4.16 2.38.17 2.36C.51 1.26 1.22.53 2.32.18C2.35.17 2.36.1 2.38.06C11.48.06 20.59.06 29.7.08C29.73.12 29.74.16 29.75.17C30.87.51 31.6 1.22 31.95 2.32C31.95 11.48 31.95 20.59 31.8 29.7C32.05 29.73 31.97 29.74 31.93 29.75C31.62 30.87 30.91 31.6 29.8 31.95C29.78 31.95 29.77 32.02 29.75 32.06C20.64 32.06 11.54 32.06 2.43 31.8C2.4 32.05 2.38 31.97 2.36 31.93C1.26 31.62.53 30.91.18 29.8C.17 29.78.1 29.77.06 29.75M12.79 25.49C13.36 25.49 13.93 25.47 14.5 25.5C14.77 25.51 14.88 25.41 14.96 25.17C16.89 19.85 18.82 14.54 20.76 9.23C20.99 8.6 21.22 7.97 21.46 7.3C20.7 7.3 19.98 7.31 19.25 7.3C19.06 7.29 18.97 7.36 18.91 7.55C18.6 8.47 18.27 9.37 17.96 10.29C16.61 14.28 15.26 18.28 13.91 22.28C13.78 22.68 13.67 23.08 13.55 23.48C11.9 18 9.78 12.7 7.94 7.32C7.11 7.32 6.32 7.32 5.5 7.32C5.54 7.44 5.58 7.54 5.61 7.64C7.73 13.41 9.86 19.18 11.98 24.96C12.18 25.49 12.18 25.49 12.79 25.49M24.02 14.78C24.02 18.35 24.02 21.91 24.02 25.47C24.79 25.47 25.5 25.47 26.2 25.47C26.2 20.91 26.2 16.38 26.2 11.86C25.46 11.86 24.75 11.86 24.02 11.86C24.02 12.83 24.02 13.77 24.02 14.78M23.62 8.15C23.67 9.01 24.34 9.63 25.17 9.6C26.01 9.57 26.67 8.94 26.67 8.16C26.68 7.38 26.03 6.74 25.19 6.7C24.37 6.65 23.68 7.27 23.62 8.15z"/><path fill="#000" d="M2.35.06C2.36.1 2.35.17 2.32.18C1.22.53.51 1.26.17 2.36C.16 2.38.12 2.4.08 2.4C.06 1.61.06.84.06.06C.81.06 1.56.06 2.35.06zM32 2.35C31.97 2.36 31.95 2.35 31.95 2.32C31.6 1.22 30.87.51 29.75.17C29.74.16 29.73.12 29.73.08C30.52.06 31.28.06 32.06.06C32.06.81 32.06 1.56 32 2.35zM.06 29.65C.1 29.77.17 29.78.18 29.8C.53 30.91 1.26 31.62 2.36 31.93C2.38 31.95 2.4 32.05 2.4 32.06C1.61 32.06.84 32.06.06 32.06C.06 31.31.06 30.56.06 29.78zM29.78 32C29.77 31.97 29.78 31.95 29.8 31.95C30.91 31.6 31.62 30.87 31.93 29.75C31.95 29.74 32.05 29.73 32.06 29.73C32.06 30.52 32.06 31.28 32.06 32C31.31 32 30.56 32 29.78 32z"/><path fill="#FE0189" d="M12.76 25.49C12.18 25.49 12.18 25.49 11.98 24.96C9.86 19.18 7.73 13.41 5.61 7.64C5.58 7.54 5.54 7.44 5.5 7.32C6.32 7.32 7.11 7.32 7.94 7.32C9.78 12.7 11.9 18 13.55 23.48C13.67 23.08 13.78 22.68 13.91 22.28C15.26 18.28 16.61 14.28 17.96 10.29C18.27 9.37 18.6 8.47 18.91 7.55C18.97 7.36 19.06 7.29 19.25 7.3C19.98 7.31 20.7 7.3 21.46 7.3C21.22 7.97 20.99 8.6 20.76 9.23C18.82 14.54 16.89 19.85 14.96 25.17C14.88 25.41 14.77 25.51 14.5 25.5C13.93 25.47 13.36 25.49 12.76 25.49z"/><path fill="#FB048B" d="M24.02 14.75C24.02 13.77 24.02 12.83 24.02 11.86C24.75 11.86 25.46 11.86 26.2 11.86C26.2 16.38 26.2 20.91 26.2 25.47C25.5 25.47 24.79 25.47 24.02 25.47C24.02 21.91 24.02 18.35 24.02 14.75z"/><path fill="#FD0289" d="M23.62 8.13C23.68 7.27 24.37 6.65 25.19 6.7C26.03 6.74 26.68 7.38 26.67 8.16C26.67 8.94 26.01 9.57 25.17 9.6C24.34 9.63 23.67 9.01 23.62 8.13z"/></svg>
